<svg width="75" height="58" viewBox="0 0 75 58" fill="none" xmlns="http://www.w3.org/2000/svg">
<path d="M14.36 56H25.32V1.04H16.6L0.04 12.96L5.16 21.04L14.36 14.08V56ZM54.4563 0.399996C43.3363 0.399996 34.6963 7.84 34.6963 18.64C34.6963 29.92 42.3763 36.4 51.4963 36.4C55.0963 36.4 58.6963 35.52 61.6563 33.84L61.7363 33.92C58.4563 41.84 51.6562 46.48 41.7363 49.2L45.0163 58C62.2163 54.72 74.2963 40.56 74.2963 22.48C74.2963 9.28 65.8963 0.399996 54.4563 0.399996ZM45.4163 18.88C45.4163 14.16 49.0163 10.24 54.6163 10.24C59.9763 10.24 63.8963 14.72 63.8963 21.52V22.32C61.6563 25.04 58.1363 27.2 54.3763 27.2C48.8563 27.2 45.4163 23.76 45.4163 18.88Z" fill="white"/>
</svg>
