<svg width="80" height="56" viewBox="0 0 80 56" fill="none" xmlns="http://www.w3.org/2000/svg">
<path d="M1.04 56H36.8V46.16H17.04L16.96 45.92L27.2 35.2C34.32 27.84 36.32 22.96 36.32 16.72C36.32 6.56 28 0.48 18.8 0.48C9.6 0.48 3.84 5.04 0.64 10.88L8.4 16.4C10.8 12.4 14.08 10.56 18 10.56C22.24 10.56 25.28 13.76 25.28 18C25.28 22.4 22.4 26.08 17.92 30.72L0.88 48.88L1.04 56ZM43.3838 56H79.1438V46.16H59.3838L59.3038 45.92L69.5438 35.2C76.6638 27.84 78.6638 22.96 78.6638 16.72C78.6638 6.56 70.3438 0.48 61.1438 0.48C51.9438 0.48 46.1838 5.04 42.9837 10.88L50.7438 16.4C53.1438 12.4 56.4238 10.56 60.3438 10.56C64.5838 10.56 67.6238 13.76 67.6238 18C67.6238 22.4 64.7438 26.08 60.2638 30.72L43.2238 48.88L43.3838 56Z" fill="white"/>
</svg>
